# xmcd
#
# Track frame offsets:
#	150
#	2786
#	17483
#	32229
#	44918
#	64624
#	77978
#	94612
#	107547
#	124133
#	139504
#	158658
#	179310
#	199178
#
# Disc length: 2883 seconds
#
# Revision: 17
# Processed by: cddbd v1.5.2PL0 Copyright (c) Steve Scherf et al.
# Submitted via: audiograbber 1.83.01
#
DISCID=b30b410e
DTITLE=Joss Stone - Introducing ... Joss Stone [Deluxe Edition]
DYEAR=2007
DGENRE=Soul
TTITLE0=Change (Vinnie Jones Intro)
TTITLE1=Girl They Won't Believe It
TTITLE2=Headturner
TTITLE3=Tell Me 'Bout It
TTITLE4=Tell Me What We're Gonna Do Now (featuring Common)
TTITLE5=Put Your Hands On Me
TTITLE6=Music (featuring Lauryn Hill)
TTITLE7=Arms Of My Baby
TTITLE8=Bad Habit
TTITLE9=Proper Nice
TTITLE10=Bruised But Not Broken
TTITLE11=Baby, Baby, Baby
TTITLE12=What Were We Thinking
TTITLE13=Music (Outro)
EXTD=YEAR: 2007
EXTT0=
EXTT1=
EXTT2=
EXTT3=
EXTT4=
EXTT5=
EXTT6=
EXTT7=
EXTT8=
EXTT9=
EXTT10=
EXTT11=
EXTT12=
EXTT13=
PLAYORDER=
